<?xml version="1.0" encoding="UTF-8" standalone="no"?>
<!-- Created with Inkscape (http://www.inkscape.org/) -->

<svg
   width="22.30596mm"
   height="10.541676mm"
   viewBox="0 0 22.30596 10.541676"
   version="1.1"
   id="svg5"
   xml:space="preserve"
   sodipodi:docname="HomeDark.svg"
   inkscape:version="1.2.2 (732a01da63, 2022-12-09)"
   xmlns:inkscape="http://www.inkscape.org/namespaces/inkscape"
   xmlns:sodipodi="http://sodipodi.sourceforge.net/DTD/sodipodi-0.dtd"
   xmlns:xlink="http://www.w3.org/1999/xlink"
   xmlns="http://www.w3.org/2000/svg"
   xmlns:svg="http://www.w3.org/2000/svg"><sodipodi:namedview
     id="namedview7"
     pagecolor="#505050"
     bordercolor="#ffffff"
     borderopacity="1"
     inkscape:showpageshadow="0"
     inkscape:pageopacity="0"
     inkscape:pagecheckerboard="1"
     inkscape:deskcolor="#505050"
     inkscape:document-units="mm"
     showgrid="false"
     inkscape:zoom="1.8707912"
     inkscape:cx="70.023847"
     inkscape:cy="13.897863"
     inkscape:window-width="1366"
     inkscape:window-height="705"
     inkscape:window-x="-8"
     inkscape:window-y="-8"
     inkscape:window-maximized="1"
     inkscape:current-layer="layer2" /><defs
     id="defs2"><linearGradient
       inkscape:collect="always"
       id="linearGradient6449"><stop
         style="stop-color:#000000;stop-opacity:1;"
         offset="0"
         id="stop6445" /><stop
         style="stop-color:#000000;stop-opacity:0;"
         offset="1"
         id="stop6447" /></linearGradient><linearGradient
       inkscape:collect="always"
       xlink:href="#linearGradient6449"
       id="linearGradient6451"
       x1="131.11288"
       y1="27.365627"
       x2="141.00188"
       y2="27.365627"
       gradientUnits="userSpaceOnUse" /></defs><g
     inkscape:groupmode="layer"
     id="layer2"
     inkscape:label="Capa 2"
     transform="translate(-135.888,-26.442371)"><path
       id="text5240"
       style="font-style:normal;font-variant:normal;font-weight:normal;font-stretch:normal;font-size:4.30413px;font-family:Gadugi;-inkscape-font-specification:Gadugi;fill:#7f5f91;fill-opacity:1;fill-rule:evenodd;stroke:#7e5f8f;stroke-width:0.365;stroke-linecap:round;stroke-linejoin:round;stroke-miterlimit:2.8;stroke-dasharray:none;stroke-opacity:1"
       d="m 144.48178,28.000742 c -0.17605,6.32e-4 -0.35513,0.0043 -0.5364,0.01087 v 0.284329 l 0.0349,0.02936 c 3.12065,-0.124956 5.37062,0.604295 5.83407,2.307798 0.38665,1.419556 -0.91396,2.928454 -3.03369,4.229061 v -0.209305 c -0.20316,0.159723 -0.42615,0.23975 -0.66854,0.23975 -0.21576,0 -0.3851,-0.06487 -0.50839,-0.195171 -0.1233,-0.130301 -0.18794,-0.315483 -0.19354,-0.555068 h 1.5193 v -0.180492 c 0,-0.32365 -0.0767,-0.576796 -0.23086,-0.758937 -0.15412,-0.18214 -0.37218,-0.273456 -0.6538,-0.273456 -0.28162,0 -0.51777,0.105929 -0.70832,0.317492 -0.18915,0.210163 -0.28343,0.482793 -0.28343,0.817651 0,0.354474 0.0866,0.629654 0.26034,0.825806 0.17374,0.194751 0.41264,0.292484 0.71667,0.292484 0.0828,0 0.16066,-0.006 0.2348,-0.01577 -1.65278,0.932183 -3.71366,1.738203 -5.838,2.298557 -5.23708,1.381426 -9.91716,1.378871 -10.61843,-1.198751 -0.51955,-1.907487 1.65524,-4.099025 4.94302,-5.669736 l -0.0761,-0.339238 c -3.53675,1.667415 -5.80325,4.014861 -5.23971,6.086173 0.75147,2.759152 5.53517,2.941463 11.14157,1.462964 5.60679,-1.478683 10.28268,-4.542244 9.53188,-7.301776 -0.4697,-1.724586 -2.67251,-2.51518 -5.62727,-2.5046 z m -8.52049,4.117613 v 3.014001 h 0.35318 v -1.37435 h 1.55909 v 1.37435 h 0.35318 v -3.014001 h -0.35318 v 1.322159 h -1.55909 v -1.322159 z m 3.95963,0.811127 c -0.33626,0 -0.60312,0.101831 -0.80067,0.304988 -0.19755,0.203157 -0.29669,0.485529 -0.29669,0.847008 0,0.332057 0.0948,0.599042 0.28392,0.800798 0.19054,0.200355 0.4448,0.300639 0.76284,0.300639 0.32645,0 0.5862,-0.103378 0.77955,-0.309337 0.19475,-0.20736 0.29227,-0.482541 0.29227,-0.825806 0,-0.350271 -0.0904,-0.623904 -0.27115,-0.821457 -0.17934,-0.197552 -0.42923,-0.296833 -0.75007,-0.296833 z m 2.59308,0 c -0.29283,0 -0.51532,0.130284 -0.66804,0.390885 h -0.008 v -0.340325 h -0.34483 v 2.152314 h 0.34483 v -1.227564 c 0,-0.203157 0.0488,-0.367538 0.14687,-0.493635 0.0981,-0.127499 0.22298,-0.191365 0.3743,-0.191365 0.32645,0 0.48973,0.211313 0.48973,0.63444 v 1.278124 h 0.34434 v -1.227564 c 0,-0.187745 0.0515,-0.348802 0.15375,-0.483306 0.10368,-0.134504 0.22866,-0.201694 0.37577,-0.201694 0.17374,0 0.29702,0.05335 0.36988,0.159833 0.0743,0.106482 0.1115,0.278828 0.1115,0.517012 v 1.235719 h 0.34483 v -1.326509 c 0,-0.584251 -0.23672,-0.876365 -0.71028,-0.876365 -0.31665,0 -0.55499,0.148764 -0.71471,0.445794 -0.0406,-0.133103 -0.11569,-0.240035 -0.22497,-0.321298 -0.10929,-0.08266 -0.23751,-0.124496 -0.38462,-0.124496 z m -2.61863,0.29031 c 0.22278,0 0.39373,0.07284 0.51282,0.218547 0.1205,0.145713 0.18077,0.352929 0.18077,0.621937 0,0.266206 -0.0603,0.471645 -0.18077,0.615957 -0.11909,0.144311 -0.29004,0.216373 -0.51282,0.216373 -0.21856,0 -0.39283,-0.07361 -0.52313,-0.220723 -0.1303,-0.147113 -0.1955,-0.347912 -0.1955,-0.602909 0,-0.264804 0.0646,-0.472564 0.19353,-0.62248 0.1289,-0.151317 0.30373,-0.226702 0.5251,-0.226702 z m 6.14304,0 c 0.16813,0 0.2991,0.05513 0.39297,0.165813 0.0953,0.110686 0.144,0.265868 0.1454,0.464822 h -1.1622 c 0.0266,-0.187745 0.0963,-0.339834 0.20975,-0.456123 0.11348,-0.11629 0.25156,-0.174512 0.41408,-0.174512 z"
       transform="scale(1.0520288,0.95054431)" /><text
       xml:space="preserve"
       style="font-style:normal;font-variant:normal;font-weight:normal;font-stretch:normal;font-size:3.88056px;font-family:Gadugi;-inkscape-font-specification:Gadugi;fill:#9d6262;fill-opacity:1;fill-rule:evenodd;stroke:#374843;stroke-width:0.465;stroke-linecap:round;stroke-linejoin:round;stroke-miterlimit:2.8;stroke-dasharray:none;stroke-opacity:1"
       x="148.05754"
       y="22.201132"
       id="text5244"><tspan
         sodipodi:role="line"
         id="tspan5242"
         style="stroke-width:0.465"
         x="148.05754"
         y="22.201132" /></text><text
       xml:space="preserve"
       style="font-style:normal;font-variant:normal;font-weight:normal;font-stretch:normal;font-size:3.88056px;font-family:Gadugi;-inkscape-font-specification:Gadugi;fill:#9d6262;fill-opacity:1;fill-rule:evenodd;stroke:#374843;stroke-width:0.465;stroke-linecap:round;stroke-linejoin:round;stroke-miterlimit:2.8;stroke-dasharray:none;stroke-opacity:1"
       x="148.10756"
       y="21.651104"
       id="text5248"><tspan
         sodipodi:role="line"
         id="tspan5246"
         style="stroke-width:0.465"
         x="148.10756"
         y="21.651104" /></text><text
       xml:space="preserve"
       style="font-style:normal;font-variant:normal;font-weight:bold;font-stretch:normal;font-size:3.52778px;font-family:sans-serif;-inkscape-font-specification:'sans-serif, Bold';font-variant-ligatures:normal;font-variant-caps:normal;font-variant-numeric:normal;font-variant-east-asian:normal;fill:#9d6262;fill-opacity:1;fill-rule:evenodd;stroke:#374843;stroke-width:0.465;stroke-linecap:round;stroke-linejoin:round;stroke-miterlimit:2.8;stroke-dasharray:none;stroke-opacity:1"
       x="149.65762"
       y="21.001072"
       id="text5252"><tspan
         sodipodi:role="line"
         id="tspan5254"
         x="149.65762"
         y="21.001072"></tspan></text><text
       xml:space="preserve"
       style="font-style:normal;font-variant:normal;font-weight:bold;font-stretch:normal;font-size:3.52777px;font-family:sans-serif;-inkscape-font-specification:'sans-serif, Bold';font-variant-ligatures:normal;font-variant-caps:normal;font-variant-numeric:normal;font-variant-east-asian:normal;fill:#9d6262;fill-opacity:1;fill-rule:evenodd;stroke:#374843;stroke-width:0.465;stroke-linecap:round;stroke-linejoin:round;stroke-miterlimit:2.8;stroke-dasharray:none;stroke-opacity:1"
       x="139.55711"
       y="18.05092"
       id="text5258"><tspan
         sodipodi:role="line"
         id="tspan5256"
         style="stroke-width:0.465"
         x="139.55711"
         y="18.05092" /></text><text
       xml:space="preserve"
       style="font-style:normal;font-variant:normal;font-weight:bold;font-stretch:normal;font-size:3.52777px;font-family:Bahnschrift;-inkscape-font-specification:'Bahnschrift, Bold';font-variant-ligatures:normal;font-variant-caps:normal;font-variant-numeric:normal;font-variant-east-asian:normal;fill:#9d6262;fill-opacity:1;fill-rule:evenodd;stroke:#374843;stroke-width:0.465;stroke-linecap:round;stroke-linejoin:round;stroke-miterlimit:2.8;stroke-dasharray:none;stroke-opacity:1"
       x="143.20731"
       y="20.901066"
       id="text5262"><tspan
         sodipodi:role="line"
         id="tspan5264"
         x="143.20731"
         y="20.901066"></tspan></text><text
       xml:space="preserve"
       style="font-style:normal;font-variant:normal;font-weight:normal;font-stretch:normal;font-size:3.52777px;font-family:'Berlin Sans FB';-inkscape-font-specification:'Berlin Sans FB, Normal';font-variant-ligatures:normal;font-variant-caps:normal;font-variant-numeric:normal;font-variant-east-asian:normal;fill:#9d6262;fill-opacity:1;fill-rule:evenodd;stroke:#374843;stroke-width:0.465;stroke-linecap:round;stroke-linejoin:round;stroke-miterlimit:2.8;stroke-dasharray:none;stroke-opacity:1"
       x="142.80728"
       y="19.651003"
       id="text5268"><tspan
         sodipodi:role="line"
         id="tspan5270"
         x="142.80728"
         y="19.651003"></tspan></text><text
       xml:space="preserve"
       style="font-style:normal;font-variant:normal;font-weight:normal;font-stretch:normal;font-size:3.52777px;font-family:'Book Antiqua';-inkscape-font-specification:'Book Antiqua';font-variant-ligatures:normal;font-variant-caps:normal;font-variant-numeric:normal;font-variant-east-asian:normal;fill:#9d6262;fill-opacity:1;fill-rule:evenodd;stroke:#374843;stroke-width:0.465;stroke-linecap:round;stroke-linejoin:round;stroke-miterlimit:2.8;stroke-dasharray:none;stroke-opacity:1"
       x="140.65718"
       y="21.801111"
       id="text5274"><tspan
         sodipodi:role="line"
         id="tspan5272"
         style="font-style:normal;font-variant:normal;font-weight:normal;font-stretch:normal;font-family:'Book Antiqua';-inkscape-font-specification:'Book Antiqua';stroke-width:0.465"
         x="140.65718"
         y="21.801111" /></text></g></svg>
