<?xml version="1.0" encoding="UTF-8" standalone="no"?>
<!-- Created with Inkscape (http://www.inkscape.org/) -->

<svg
   width="15.917839mm"
   height="19.341621mm"
   viewBox="0 0 15.917839 19.341621"
   version="1.1"
   id="svg5"
   xml:space="preserve"
   sodipodi:docname="SSD.svg"
   inkscape:version="1.2.2 (732a01da63, 2022-12-09)"
   xmlns:inkscape="http://www.inkscape.org/namespaces/inkscape"
   xmlns:sodipodi="http://sodipodi.sourceforge.net/DTD/sodipodi-0.dtd"
   xmlns:xlink="http://www.w3.org/1999/xlink"
   xmlns="http://www.w3.org/2000/svg"
   xmlns:svg="http://www.w3.org/2000/svg"><sodipodi:namedview
     id="namedview7"
     pagecolor="#505050"
     bordercolor="#ffffff"
     borderopacity="1"
     inkscape:showpageshadow="0"
     inkscape:pageopacity="0"
     inkscape:pagecheckerboard="1"
     inkscape:deskcolor="#505050"
     inkscape:document-units="mm"
     showgrid="false"
     inkscape:zoom="7.483165"
     inkscape:cx="17.773228"
     inkscape:cy="40.223622"
     inkscape:window-width="1366"
     inkscape:window-height="705"
     inkscape:window-x="-8"
     inkscape:window-y="-8"
     inkscape:window-maximized="1"
     inkscape:current-layer="layer3" /><defs
     id="defs2"><linearGradient
       inkscape:collect="always"
       id="linearGradient2441"><stop
         style="stop-color:#000000;stop-opacity:0.29126215;"
         offset="0"
         id="stop2437" /><stop
         style="stop-color:#b4764d;stop-opacity:0.30420712;"
         offset="1"
         id="stop2439" /></linearGradient><linearGradient
       inkscape:collect="always"
       id="linearGradient2364"><stop
         style="stop-color:#000000;stop-opacity:0.29126215;"
         offset="0"
         id="stop2360" /><stop
         style="stop-color:#bd7d51;stop-opacity:0.19417475;"
         offset="1"
         id="stop2362" /></linearGradient><linearGradient
       inkscape:collect="always"
       id="linearGradient1591"><stop
         style="stop-color:#000000;stop-opacity:0.25566342;"
         offset="0"
         id="stop1587" /><stop
         style="stop-color:#ca8554;stop-opacity:0.26860842;"
         offset="1"
         id="stop1589" /></linearGradient><linearGradient
       inkscape:collect="always"
       id="linearGradient6449"><stop
         style="stop-color:#000000;stop-opacity:1;"
         offset="0"
         id="stop6445" /><stop
         style="stop-color:#000000;stop-opacity:0;"
         offset="1"
         id="stop6447" /></linearGradient><linearGradient
       inkscape:collect="always"
       xlink:href="#linearGradient6449"
       id="linearGradient6451"
       x1="131.11288"
       y1="27.365627"
       x2="141.00188"
       y2="27.365627"
       gradientUnits="userSpaceOnUse" /><linearGradient
       inkscape:collect="always"
       xlink:href="#linearGradient1591"
       id="linearGradient1593"
       x1="102.99394"
       y1="26.401615"
       x2="118.81863"
       y2="26.401615"
       gradientUnits="userSpaceOnUse" /><linearGradient
       inkscape:collect="always"
       xlink:href="#linearGradient2364"
       id="linearGradient2366"
       x1="103.07461"
       y1="23.637026"
       x2="118.8993"
       y2="23.637026"
       gradientUnits="userSpaceOnUse" /><linearGradient
       inkscape:collect="always"
       xlink:href="#linearGradient2441"
       id="linearGradient2443"
       x1="103.14533"
       y1="20.667025"
       x2="118.97002"
       y2="20.667025"
       gradientUnits="userSpaceOnUse" /></defs><g
     inkscape:groupmode="layer"
     id="layer3"
     inkscape:label="Capa 3"
     transform="translate(-102.96089,-15.540239)"><path
       id="path13929-0-7"
       style="fill:none;fill-opacity:1;fill-rule:evenodd;stroke:url(#linearGradient1593);stroke-width:0.05;stroke-dasharray:none;stroke-opacity:1"
       d="m 114.19609,22.372962 0.007,0.0151 0.0272,0.02059 c 2.36746,-0.187154 4.09536,0.281803 4.49109,1.523242 0.49829,2.0297 -3.01347,4.49782 -6.95622,5.675421 -8.45585,2.613202 -11.833012,-1.326194 -5.26669,-5.094965 0.22326,-0.128143 0.45933,-0.251272 0.70853,-0.377922 l 0.004,-0.01789 c -2.64402,1.33668 -4.57439,3.185882 -4.09321,4.695362 0.70014,1.975587 4.44606,2.060658 8.64637,0.812652 4.06105,-1.316841 7.42382,-3.683321 6.94783,-5.707406 -0.37692,-1.273021 -2.36151,-1.6707 -4.51612,-1.544183 z"
       sodipodi:nodetypes="cccccsccccccc" /><path
       id="path13929-0-7-1"
       style="fill:none;fill-opacity:1;fill-rule:evenodd;stroke:url(#linearGradient2366);stroke-width:0.05;stroke-dasharray:none;stroke-opacity:1"
       d="m 114.27676,19.608373 0.007,0.0151 0.0272,0.02059 c 2.36746,-0.187154 4.09536,0.281803 4.49109,1.523242 0.49829,2.0297 -3.01347,4.49782 -6.95622,5.675421 -8.45585,2.613202 -11.83301,-1.326194 -5.26669,-5.094965 0.22326,-0.128143 0.45933,-0.251272 0.70853,-0.377922 l 0.004,-0.01789 c -2.64402,1.33668 -4.57439,3.185882 -4.09321,4.695362 0.70014,1.975587 4.44606,2.060658 8.64637,0.812652 4.06105,-1.316841 7.42382,-3.683321 6.94783,-5.707406 -0.37692,-1.273021 -2.36151,-1.6707 -4.51612,-1.544183 z"
       sodipodi:nodetypes="cccccsccccccc" /><path
       id="path13929-0-7-5"
       style="fill:none;fill-opacity:1;fill-rule:evenodd;stroke:url(#linearGradient2443);stroke-width:0.05;stroke-dasharray:none;stroke-opacity:1"
       d="m 114.34748,16.638372 0.007,0.0151 0.0272,0.02059 c 2.36746,-0.187154 4.09536,0.281803 4.49109,1.523242 0.49829,2.0297 -3.01347,4.49782 -6.95622,5.675421 -8.45585,2.613202 -11.83301,-1.326194 -5.26669,-5.094965 0.22326,-0.128143 0.45933,-0.251272 0.70853,-0.377922 l 0.004,-0.01789 c -2.64402,1.33668 -4.57439,3.185882 -4.09321,4.695362 0.70014,1.975587 4.44606,2.060658 8.64637,0.812652 4.06105,-1.316841 7.42382,-3.683321 6.94783,-5.707406 -0.37692,-1.273021 -2.36151,-1.6707 -4.51612,-1.544183 z"
       sodipodi:nodetypes="cccccsccccccc" /></g><g
     inkscape:groupmode="layer"
     id="layer2"
     inkscape:label="Capa 2"
     transform="translate(-102.96089,-15.540239)"><text
       xml:space="preserve"
       style="font-style:normal;font-variant:normal;font-weight:normal;font-stretch:normal;font-size:3.29817px;font-family:Gadugi;-inkscape-font-specification:Gadugi;fill:#000000;fill-opacity:1;fill-rule:evenodd;stroke:#000000;stroke-width:0;stroke-linecap:round;stroke-linejoin:round;stroke-miterlimit:2.8;stroke-dasharray:none;stroke-opacity:1"
       x="95.893845"
       y="18.795691"
       id="text5240"
       transform="scale(1.0719683,0.9328634)"><tspan
         sodipodi:role="line"
         id="tspan5238"
         style="fill:#000000;fill-opacity:1;stroke:#000000;stroke-width:0;stroke-dasharray:none;stroke-opacity:1"
         x="95.893845"
         y="18.795691">start</tspan><tspan
         sodipodi:role="line"
         style="fill:#000000;fill-opacity:1;stroke:#000000;stroke-width:0;stroke-dasharray:none;stroke-opacity:1"
         x="95.893845"
         y="22.918404"
         id="tspan23534" /><tspan
         sodipodi:role="line"
         style="fill:#000000;fill-opacity:1;stroke:#000000;stroke-width:0;stroke-dasharray:none;stroke-opacity:1"
         x="95.893845"
         y="27.041115"
         id="tspan23536">games</tspan><tspan
         sodipodi:role="line"
         style="fill:#000000;fill-opacity:1;stroke:#000000;stroke-width:0;stroke-dasharray:none;stroke-opacity:1"
         x="95.893845"
         y="31.163828"
         id="tspan23538">differently</tspan></text><text
       xml:space="preserve"
       style="font-style:normal;font-variant:normal;font-weight:normal;font-stretch:normal;font-size:3.29817px;font-family:Gadugi;-inkscape-font-specification:Gadugi;fill:#ca8554;fill-opacity:1;fill-rule:evenodd;stroke:#c2783a;stroke-width:0;stroke-linecap:round;stroke-linejoin:round;stroke-miterlimit:2.8;stroke-dasharray:none;stroke-opacity:1"
       x="95.910393"
       y="22.998446"
       id="text5240-5"
       transform="scale(1.0719683,0.9328634)"><tspan
         sodipodi:role="line"
         style="fill:#ca8554;fill-opacity:1;stroke:#c2783a;stroke-width:0;stroke-dasharray:none;stroke-opacity:1"
         x="95.910393"
         y="22.998446"
         id="tspan23538-0">streaming</tspan></text><text
       xml:space="preserve"
       style="font-style:normal;font-variant:normal;font-weight:normal;font-stretch:normal;font-size:0.91963px;font-family:Gadugi;-inkscape-font-specification:Gadugi;fill:#000000;fill-opacity:1;fill-rule:evenodd;stroke:#c2783a;stroke-width:0;stroke-linecap:round;stroke-linejoin:round;stroke-miterlimit:2.8;stroke-dasharray:none;stroke-opacity:1"
       x="107.93591"
       y="32.426922"
       id="text5240-5-1"
       transform="scale(0.95619339,1.0458135)"><tspan
         sodipodi:role="line"
         style="fill:#000000;fill-opacity:1;stroke:#c2783a;stroke-width:0;stroke-dasharray:none;stroke-opacity:1"
         x="107.93591"
         y="32.426922"
         id="tspan23538-0-4">gamor now has <tspan
   style="font-style:normal;font-variant:normal;font-weight:bold;font-stretch:normal;font-family:Gadugi;-inkscape-font-specification:'Gadugi Bold';stroke-width:0"
   id="tspan28170">stream party</tspan> platform</tspan></text><path
       id="path28227"
       style="fill:none;fill-rule:evenodd;stroke:#6b5c76;stroke-width:0.264583;stroke-opacity:1"
       d="m 111.94701,34.46967 c -1.2886,-4e-6 -2.53321,0.253616 -2.41424,0.272547 6.3e-4,0.0013 0.003,0.0025 0.006,0.0037 0.40659,-0.05778 1.08027,-0.242853 2.17721,-0.266417 0.0331,-7.12e-4 0.0667,-0.0013 0.10058,-0.0017 0.0432,-5.22e-4 0.0871,-7.91e-4 0.13164,-7.91e-4 1.23335,4e-6 2.22844,0.274793 2.24692,0.268757 0.003,-0.0012 0.005,-0.0023 0.006,-0.0035 0.044,-0.01641 -0.96314,-0.272566 -2.25174,-0.272547 z"
       sodipodi:nodetypes="cccssccccc" /></g></svg>
