<?xml version="1.0" encoding="UTF-8" standalone="no"?>
<!-- Created with Inkscape (http://www.inkscape.org/) -->

<svg
   width="47.058517mm"
   height="57.78474mm"
   viewBox="0 0 47.058517 57.78474"
   version="1.1"
   id="svg1"
   xml:space="preserve"
   xmlns="http://www.w3.org/2000/svg"
   xmlns:svg="http://www.w3.org/2000/svg"><defs
     id="defs1" /><g
     id="layer3"
     transform="translate(-80.30285,-199.3229)"><path
       id="path1"
       style="opacity:1;fill:none;fill-opacity:1;stroke:#ffffff;stroke-width:2.662;stroke-linecap:round;stroke-dasharray:none;stroke-opacity:1"
       d="m 103.83294,200.6539 a 11.43681,12.373521 0 0 0 -11.436513,12.37341 11.43681,12.373521 0 0 0 11.436513,12.37392 11.43681,12.373521 0 0 0 11.43703,-12.37392 11.43681,12.373521 0 0 0 -11.43703,-12.37341 z m -7.161838,28.24169 c -3.128798,-0.15397 -14.194431,1.67116 -14.760339,15.02234 -0.04869,1.1486 -0.772192,4.66653 0.374137,6.12779 3.167965,4.03827 12.049163,5.73092 21.73924,5.73092 8.59695,0 18.39101,-1.70207 21.64054,-5.83634 0.84992,-1.08131 -0.0299,-5.67571 -0.17983,-7.96592 -0.62577,-9.55876 -5.35135,-11.84321 -14.88023,-12.89637 -1.85971,-0.20554 0.002,1.39583 -6.3593,2.02158 -2.6212,0.25783 -5.901186,-1.10202 -6.772717,-2.04484 -0.06927,-0.0749 -0.35453,-0.13717 -0.801501,-0.15916 z" /></g></svg>
